<?xml version="1.0" standalone="no"?>
<!DOCTYPE svg PUBLIC "-//W3C//DTD SVG 20010904//EN"
 "http://www.w3.org/TR/2001/REC-SVG-20010904/DTD/svg10.dtd">
<svg version="1.0" xmlns="http://www.w3.org/2000/svg"
 width="247.000000pt" height="225.000000pt" viewBox="0 0 247.000000 225.000000"
 preserveAspectRatio="xMidYMid meet">

<g transform="translate(0.000000,225.000000) scale(0.100000,-0.100000)"
fill="#000000" stroke="none">
<path d="M246 2236 c16 -12 27 -12 69 -1 l50 14 -70 0 c-62 1 -67 0 -49 -13z"/>
<path d="M400 2246 c0 -8 61 -12 66 -4 3 4 -11 8 -30 8 -20 0 -36 -2 -36 -4z"/>
<path d="M568 2188 c4 -81 4 -308 -1 -330 -2 -10 -6 -21 -10 -24 -11 -11 -8
-24 5 -24 6 0 30 19 52 43 23 23 61 58 86 77 25 19 47 37 50 40 9 10 81 32 87
27 3 -3 -4 -12 -16 -19 -12 -7 -21 -18 -21 -25 0 -7 -4 -13 -9 -13 -9 0 -161
-147 -161 -155 0 -15 25 2 85 55 37 34 79 63 96 67 16 3 32 10 35 14 3 5 14 9
26 9 15 0 18 -4 13 -17 -4 -10 -11 -36 -14 -59 -4 -22 -17 -50 -29 -62 -13
-13 -20 -27 -17 -32 3 -5 1 -11 -5 -15 -14 -8 -34 -57 -65 -155 -34 -106 -39
-140 -21 -140 15 0 76 103 76 127 0 8 7 16 15 19 8 4 12 10 9 15 -3 5 0 9 5 9
7 0 11 -33 11 -89 0 -50 4 -92 9 -95 5 -3 12 -26 15 -51 4 -24 11 -47 17 -50
5 -4 9 -16 9 -28 0 -16 3 -18 9 -8 12 19 6 72 -10 82 -10 6 -14 48 -17 178 -4
160 -3 169 14 168 16 -2 19 5 17 43 -1 25 -5 60 -9 78 -3 18 -2 38 4 45 6 7 9
22 6 34 -3 11 -1 24 5 27 6 4 11 16 11 27 0 11 9 37 19 58 16 30 33 44 91 70
70 33 75 33 174 29 80 -4 109 -10 137 -26 19 -12 58 -25 85 -28 79 -11 231
-88 295 -150 29 -29 41 -34 55 -26 16 9 16 10 -2 16 -14 4 -22 21 -31 65 -10
55 -8 79 13 159 4 13 106 15 203 4 49 -6 55 -10 62 -34 4 -18 3 -28 -3 -28 -7
0 -7 -4 0 -12 13 -17 22 -117 10 -124 -4 -3 -8 -26 -8 -52 -1 -144 -9 -301
-18 -327 -10 -30 -10 -30 -11 -4 -1 15 -10 38 -22 53 -14 18 -16 26 -7 26 9 1
7 5 -4 14 -10 7 -18 16 -18 19 0 4 8 4 18 1 9 -2 7 1 -5 7 -13 7 -23 16 -23
21 0 9 -37 48 -45 48 -3 0 -5 -7 -5 -15 0 -8 4 -15 10 -15 5 0 12 -12 16 -27
3 -16 16 -46 29 -68 12 -22 28 -65 35 -95 7 -30 17 -63 21 -72 5 -9 5 -26 1
-38 -8 -21 -10 -20 -34 17 -14 21 -34 57 -44 80 -36 80 -54 46 -33 -62 5 -27
10 -67 12 -87 1 -20 6 -40 10 -44 4 -4 7 -23 7 -43 0 -33 -1 -34 -15 -15 -8
10 -15 31 -15 45 0 14 -7 34 -15 45 -8 10 -15 26 -15 35 0 22 -36 53 -50 44
-7 -4 -9 -16 -5 -29 40 -129 59 -455 36 -591 -6 -33 -12 -109 -13 -170 -1 -79
-3 -91 -5 -42 -3 59 -6 67 -23 67 -17 0 -20 -7 -20 -48 0 -48 -51 -227 -70
-246 -7 -7 -10 -6 -10 1 0 7 4 14 8 17 5 3 12 44 15 92 3 47 10 91 15 97 5 7
10 19 10 27 1 8 6 35 12 60 6 25 13 62 17 84 10 61 -18 41 -46 -35 -32 -85
-50 -130 -61 -151 -6 -10 -10 -24 -10 -32 0 -8 -7 -16 -15 -20 -8 -3 -15 -12
-15 -21 0 -8 -5 -15 -11 -15 -7 0 -8 36 -3 116 6 98 5 116 -7 112 -8 -3 -17
-25 -21 -52 -3 -26 -14 -58 -22 -71 -9 -13 -16 -31 -16 -40 0 -8 -4 -15 -10
-15 -5 0 -10 -10 -10 -23 0 -13 -13 -36 -30 -52 -16 -16 -30 -27 -30 -24 0 2
18 40 40 84 23 43 39 84 36 91 -3 8 -1 16 3 19 5 2 12 21 16 41 3 20 11 48 17
63 6 14 12 28 13 31 1 3 7 18 13 33 16 39 15 77 -2 77 -8 0 -17 -6 -20 -12 -4
-7 -4 -2 -1 12 28 122 39 220 27 232 -8 8 -13 4 -18 -16 -10 -40 -38 -28 -40
19 0 11 -4 58 -8 104 -7 66 -5 85 5 93 11 7 11 11 1 15 -6 2 -10 9 -6 14 3 5
-2 9 -10 9 -11 0 -18 13 -22 41 -4 22 -13 46 -20 53 -7 8 -11 16 -8 19 3 3 1
13 -5 24 -5 10 -19 43 -31 74 -24 63 -83 135 -101 123 -8 -5 -7 -9 5 -16 9 -5
16 -14 16 -20 0 -6 6 -19 14 -27 16 -19 42 -100 51 -161 3 -24 11 -47 17 -51
7 -4 6 -14 -2 -29 -11 -20 -10 -25 4 -35 9 -7 16 -18 16 -25 0 -7 -11 -1 -25
15 -20 21 -23 30 -14 41 9 11 6 14 -15 14 -28 0 -56 20 -56 39 0 5 -9 13 -20
16 -11 3 -20 10 -20 16 0 15 -33 49 -48 49 -18 0 -6 -37 24 -73 29 -34 30 -47
6 -47 -34 0 -68 44 -118 150 -12 25 -35 62 -52 83 -17 21 -33 51 -37 67 -3 15
-13 31 -22 34 -8 4 -13 13 -9 21 3 8 1 17 -3 20 -5 2 -12 25 -15 50 -5 31 -12
45 -22 45 -13 0 -14 -8 -9 -42 4 -24 13 -58 21 -76 7 -18 20 -67 29 -109 9
-42 24 -88 34 -102 9 -14 23 -40 30 -58 7 -18 19 -38 27 -44 16 -13 19 -49 4
-49 -5 0 -10 5 -10 10 0 6 -5 10 -10 10 -13 0 -60 49 -60 61 0 5 -7 9 -15 9
-18 0 -19 -11 -2 -30 6 -7 -2 -3 -20 11 -18 13 -32 30 -32 37 -1 6 -5 12 -11
12 -5 0 -10 11 -10 23 0 13 -9 32 -19 41 -11 10 -28 38 -38 62 -10 24 -21 44
-25 44 -17 0 0 -238 19 -290 3 -8 7 -19 8 -25 0 -5 4 -17 7 -25 11 -27 17
-131 7 -125 -5 4 -9 14 -9 24 0 10 -7 25 -16 32 -15 12 -16 11 -9 -10 12 -38
45 -89 45 -70 0 9 7 20 15 23 12 4 14 10 5 25 -14 27 -13 31 10 31 11 0 20 5
20 10 0 6 -6 10 -12 10 -8 0 -13 14 -14 33 -3 70 -8 108 -16 113 -4 3 -8 12
-8 20 0 10 5 9 20 -6 11 -11 20 -29 20 -40 0 -11 5 -20 10 -20 6 0 10 -4 10
-9 0 -11 32 -52 72 -91 40 -40 51 -75 31 -96 -14 -13 -14 -17 -2 -26 10 -7 8
-8 -8 -3 -14 4 -23 2 -23 -4 0 -14 47 -14 55 -1 3 5 18 10 33 9 24 0 25 -1 7
-9 -12 -4 -27 -15 -34 -24 -11 -13 -11 -17 3 -22 11 -4 15 -13 11 -25 -7 -20
13 -26 31 -10 5 5 19 12 32 16 21 6 22 5 16 -34 -9 -53 3 -111 22 -111 11 0
12 4 4 19 -16 30 -12 41 14 41 18 0 25 -6 28 -22 5 -35 51 -37 66 -3 8 17 19
25 37 25 15 0 25 6 25 14 0 19 -19 31 -45 29 -16 -1 -16 -1 -2 3 9 3 17 12 17
20 0 21 15 17 50 -12 22 -19 28 -30 21 -37 -18 -18 -12 -28 8 -17 30 15 30 14
25 -42 -3 -29 -5 -60 -6 -68 0 -8 -4 -19 -8 -25 -4 -5 -10 -27 -14 -48 -4 -21
-16 -66 -27 -100 -11 -34 -22 -87 -24 -117 -7 -129 -25 -182 -82 -248 -26 -30
-33 -32 -114 -38 -47 -4 -116 -3 -152 0 l-67 8 0 54 c0 49 2 54 23 54 12 0 36
9 52 20 17 11 26 20 20 20 -5 -1 -19 -7 -29 -15 -11 -8 -30 -15 -43 -15 -30 0
-99 35 -141 71 -32 28 -81 41 -66 18 4 -7 1 -10 -7 -7 -8 3 -15 14 -17 25 -2
11 -23 39 -47 63 -25 25 -45 51 -45 60 0 8 -7 25 -15 36 -22 33 -65 153 -65
185 0 16 -4 29 -9 29 -11 0 -8 -45 4 -73 4 -10 5 -20 2 -23 -3 -3 -18 22 -34
55 -29 63 -59 84 -47 34 4 -16 11 -36 15 -45 13 -24 11 -28 -11 -28 -15 0 -20
-7 -20 -29 0 -29 17 -121 28 -151 3 -8 4 -19 3 -24 -1 -6 2 -19 7 -30 5 -12
14 -43 20 -71 6 -27 14 -59 18 -70 6 -16 1 -14 -24 9 -17 16 -34 43 -38 60 -3
17 -9 33 -13 36 -3 3 -20 33 -36 67 -17 35 -36 63 -42 63 -15 0 -17 -16 -4
-25 6 -3 10 -13 9 -23 0 -26 29 -120 44 -145 8 -12 22 -44 33 -71 10 -27 34
-67 54 -89 l36 -40 -30 7 c-16 4 -37 14 -45 21 -9 8 -32 21 -52 29 -28 12 -42
28 -62 70 -14 30 -26 64 -26 75 0 11 -6 24 -14 28 -8 4 -18 34 -23 66 -4 32
-12 58 -18 57 -12 0 -19 -106 -9 -129 10 -22 11 -111 1 -111 -4 0 -21 28 -37
63 -26 55 -30 73 -30 153 0 76 4 101 25 148 14 31 25 63 25 71 0 26 -16 16
-32 -17 -51 -113 -95 -192 -108 -196 -12 -4 -13 -2 -3 9 7 7 13 21 13 32 0 10
11 39 25 64 14 25 24 48 21 51 -3 2 1 14 9 26 21 28 19 56 -3 56 -15 0 -18 7
-16 38 1 20 3 58 3 83 1 38 5 48 21 52 24 6 24 8 4 -59 -15 -53 -14 -84 4 -84
11 0 35 88 38 138 1 24 7 49 13 55 6 6 11 23 11 38 0 15 4 31 10 34 5 3 10 16
10 28 2 51 7 98 14 104 3 3 6 30 6 60 0 40 -4 53 -15 53 -8 0 -15 -5 -15 -10
0 -6 -15 -20 -32 -31 -29 -18 -30 -20 -8 -14 22 5 23 5 8 -8 -9 -7 -20 -26
-24 -41 -3 -15 -13 -30 -20 -33 -8 -3 -14 -10 -14 -17 0 -6 -9 -22 -19 -36
-16 -20 -26 -24 -65 -21 -28 1 -46 -2 -46 -8 0 -6 -6 -11 -14 -11 -8 0 -16 -4
-18 -10 -1 -5 -24 -11 -50 -12 -47 -3 -48 -4 -48 -36 0 -29 2 -32 19 -22 26
13 151 13 151 -1 0 -5 5 -7 11 -3 8 5 8 9 -1 14 -9 5 -9 9 -1 14 6 4 17 1 25
-6 18 -19 -3 -38 -47 -42 -17 -2 -60 -7 -94 -11 l-63 -8 0 -55 0 -54 25 16
c14 10 49 20 78 23 29 3 57 10 64 15 9 7 11 2 9 -16 -1 -14 -6 -29 -9 -33 -4
-3 -7 -16 -7 -29 0 -12 -4 -24 -8 -26 -11 -4 3 -161 14 -165 12 -4 10 -83 -2
-91 -15 -11 -70 -86 -77 -106 -6 -15 -4 -17 15 -12 13 3 26 6 29 6 4 0 9 12
13 28 7 32 33 68 43 59 3 -4 -4 -19 -18 -34 l-24 -26 22 6 c22 5 23 2 23 -47
l0 -53 -92 -24 -93 -25 -3 -212 -2 -212 1235 0 1235 0 0 1125 0 1125 -307 -2
c-234 -1 -280 -3 -193 -8 63 -4 116 -8 118 -9 1 0 2 -8 2 -16 0 -19 -53 -23
-140 -10 -19 3 -55 7 -80 10 -97 12 -114 16 -99 26 8 5 -228 9 -596 9 l-610 0
3 -62z m1856 -719 c-1 -19 -5 -46 -9 -61 -4 -17 -1 -38 9 -60 11 -23 16 -67
17 -153 1 -66 1 -125 0 -132 -1 -12 -63 -35 -146 -54 -92 -20 -94 -20 -104 18
-6 19 -7 41 -4 49 3 9 -2 14 -16 14 -14 0 -21 -6 -21 -20 0 -11 3 -20 8 -20 8
0 45 -84 47 -110 1 -8 8 -28 14 -45 7 -16 16 -59 22 -95 5 -36 14 -87 20 -115
19 -90 22 -126 10 -138 -6 -6 -11 -23 -11 -38 0 -15 -4 -31 -10 -34 -5 -3 -10
-15 -10 -26 0 -10 -4 -19 -10 -19 -6 0 -10 41 -10 104 0 62 -4 107 -10 111 -6
4 -10 14 -9 23 2 16 -14 87 -28 122 -3 8 -5 30 -4 47 2 20 -6 44 -18 62 -17
23 -22 51 -28 146 -5 89 -3 116 5 111 7 -4 12 -16 12 -27 0 -20 24 -26 35 -9
3 5 -5 29 -18 52 -13 24 -22 49 -20 56 3 6 0 12 -6 12 -6 0 -11 6 -11 13 0 16
-28 75 -39 81 -4 3 -8 23 -9 44 -2 39 -1 40 40 46 23 4 47 11 53 15 5 5 39 11
74 15 49 5 69 12 89 31 19 20 33 24 61 22 34 -4 36 -6 35 -38z m-411 -90 c4
-16 3 -18 -9 -8 -16 13 -19 29 -5 29 5 0 11 -9 14 -21z m-706 -44 c32 -30 64
-55 72 -55 7 0 36 -18 63 -40 28 -22 56 -40 63 -40 13 0 25 -21 25 -46 0 -20
-29 -17 -75 6 -43 22 -180 29 -215 10 -10 -5 -32 -7 -48 -4 -25 5 -31 12 -36
43 -11 73 -12 91 -4 91 12 0 114 -66 122 -79 8 -13 46 -15 46 -2 0 5 -7 15
-16 22 -29 23 -66 90 -60 106 4 9 1 22 -5 29 -7 9 -8 14 -1 14 6 0 36 -25 69
-55z m53 3 c25 -41 15 -51 -15 -15 -13 15 -29 27 -35 27 -5 0 -10 5 -10 10 0
23 41 8 60 -22z m-1050 -209 c0 -9 -7 -20 -16 -23 -12 -4 -14 -1 -9 14 5 14 2
20 -9 20 -9 0 -16 6 -16 14 0 11 5 12 25 3 14 -7 25 -19 25 -28z m-71 -43
c-13 -37 -29 -48 -29 -20 0 15 32 65 38 59 2 -2 -2 -20 -9 -39z m1323 -75
c-24 -71 -39 -52 -18 22 5 15 14 27 21 27 10 0 9 -11 -3 -49z m-1342 25 c0 -3
-4 -8 -10 -11 -5 -3 -10 -1 -10 4 0 6 5 11 10 11 6 0 10 -2 10 -4z m370 -216
c0 -5 -2 -10 -4 -10 -3 0 -8 5 -11 10 -3 6 -1 10 4 10 6 0 11 -4 11 -10z m57
-32 c-3 -8 -6 -5 -6 6 -1 11 2 17 5 13 3 -3 4 -12 1 -19z m1190 -280 c-3 -8
-6 -5 -6 6 -1 11 2 17 5 13 3 -3 4 -12 1 -19z m-984 -28 c3 -11 1 -20 -4 -20
-5 0 -9 9 -9 20 0 11 2 20 4 20 2 0 6 -9 9 -20z m1377 -110 c0 -5 -2 -10 -4
-10 -3 0 -8 5 -11 10 -3 6 -1 10 4 10 6 0 11 -4 11 -10z m-522 -12 c-2 -6 -10
-14 -16 -16 -7 -2 -10 2 -6 12 7 18 28 22 22 4z m499 -4 c-3 -3 -12 -4 -19 -1
-8 3 -5 6 6 6 11 1 17 -2 13 -5z m-777 -24 c0 -5 -7 -10 -16 -10 -8 0 -12 5
-9 10 3 6 10 10 16 10 5 0 9 -4 9 -10z m-910 -261 c0 -6 -5 -7 -10 -4 -6 4
-17 1 -25 -5 -20 -17 -19 -5 1 14 16 16 34 13 34 -5z"/>
<path d="M260 2141 c0 -5 5 -13 10 -16 6 -3 10 -2 10 4 0 5 -4 13 -10 16 -5 3
-10 2 -10 -4z"/>
<path d="M400 2078 c0 -16 4 -28 9 -28 5 0 13 -10 16 -21 7 -21 7 -21 31 4 30
32 33 63 6 48 -13 -7 -23 -6 -30 1 -7 7 -12 8 -12 3 0 -6 -5 -3 -10 5 -8 12
-10 9 -10 -12z"/>
<path d="M265 2080 c-3 -5 1 -10 10 -10 9 0 13 5 10 10 -3 6 -8 10 -10 10 -2
0 -7 -4 -10 -10z"/>
<path d="M347 2069 c5 -20 18 -25 27 -11 2 4 -4 13 -14 19 -15 10 -17 9 -13
-8z"/>
<path d="M263 2013 c9 -2 17 -8 17 -13 0 -5 -7 -7 -15 -4 -11 5 -15 -1 -15
-18 0 -38 12 -41 32 -7 21 35 16 50 -15 48 -17 -1 -18 -2 -4 -6z"/>
<path d="M1395 1980 c-3 -5 1 -10 9 -10 9 0 16 -4 16 -8 0 -5 15 -16 33 -25
59 -31 131 -92 153 -128 21 -37 76 -91 84 -83 4 5 -9 36 -31 68 -21 33 -39 66
-39 73 0 21 -35 50 -76 63 -22 7 -58 24 -81 37 -46 25 -59 28 -68 13z"/>
<path d="M1785 1890 c-3 -5 3 -10 14 -10 12 0 21 5 21 10 0 6 -6 10 -14 10 -8
0 -18 -4 -21 -10z"/>
<path d="M1153 1875 c-9 -26 8 -47 59 -74 25 -13 51 -33 58 -45 10 -19 36 -35
75 -45 5 -1 11 3 14 10 2 6 -1 9 -6 6 -10 -6 -123 117 -123 133 0 4 -8 10 -17
13 -10 2 -26 8 -35 12 -12 5 -20 2 -25 -10z"/>
<path d="M257 1868 c-5 -16 11 -50 29 -61 19 -11 18 -37 -1 -37 -11 0 -15 -11
-15 -40 0 -33 3 -40 20 -40 17 0 20 7 20 40 0 30 4 40 16 40 8 0 12 5 9 10 -4
6 -2 17 4 24 14 17 -25 70 -45 62 -8 -3 -14 -1 -14 4 0 14 -18 12 -23 -2z"/>
<path d="M1809 1869 c-10 -6 -10 -9 -1 -9 6 0 12 -4 12 -9 0 -12 67 -81 79
-81 13 0 -48 96 -65 103 -6 3 -17 1 -25 -4z"/>
<path d="M350 1790 c0 -5 7 -10 16 -10 8 0 12 5 9 10 -3 6 -10 10 -16 10 -5 0
-9 -4 -9 -10z"/>
<path d="M518 1765 c-7 -9 -19 -22 -25 -30 -7 -7 -13 -18 -13 -23 0 -5 -7 -15
-15 -22 -17 -14 -20 -30 -5 -30 6 0 10 7 10 15 0 8 4 15 9 15 5 0 12 8 15 18
3 9 17 29 31 45 14 15 21 27 16 27 -6 0 -16 -7 -23 -15z"/>
<path d="M576 1730 c-35 -39 -48 -76 -23 -68 6 3 18 16 25 31 7 14 24 35 37
45 28 22 31 32 11 32 -7 0 -30 -18 -50 -40z"/>
<path d="M0 1730 c0 -11 2 -20 4 -20 2 0 6 9 9 20 3 11 1 20 -4 20 -5 0 -9 -9
-9 -20z"/>
<path d="M1715 1680 c-4 -6 3 -22 16 -36 12 -13 23 -32 25 -41 4 -33 16 -63
25 -63 18 0 17 20 -4 61 -34 67 -54 92 -62 79z"/>
<path d="M271 1648 c-6 -17 -20 -37 -31 -45 -24 -17 -27 -68 -5 -90 13 -12 21
-13 44 -3 22 9 32 22 42 58 7 26 15 52 16 57 2 6 -10 21 -26 33 l-29 21 -11
-31z"/>
<path d="M430 1605 c-8 -19 -17 -35 -22 -35 -4 0 -8 -7 -8 -15 0 -8 -4 -15 -8
-15 -4 0 -8 -12 -8 -27 0 -16 -3 -38 -8 -50 -4 -13 -3 -23 2 -23 9 0 36 48 36
65 0 6 11 34 23 64 13 30 20 58 15 63 -4 4 -14 -8 -22 -27z"/>
<path d="M517 1613 c-32 -57 -40 -277 -13 -353 40 -110 56 -124 73 -67 l10 32
21 -45 c21 -44 21 -45 2 -48 -22 -4 -26 -17 -10 -27 6 -4 8 -11 5 -16 -6 -9
17 -39 31 -39 4 0 16 -8 26 -17 19 -17 19 -16 13 8 -8 32 19 58 71 66 38 6 39
6 22 -14 -21 -23 -23 -71 -4 -95 7 -10 16 -18 19 -18 3 0 8 8 10 18 4 15 5 15
6 1 2 -25 33 -33 48 -13 18 24 29 9 17 -24 -7 -19 -18 -29 -39 -32 -29 -6 -30
-6 -6 -14 34 -12 68 26 76 87 l7 47 -30 0 c-25 0 -29 3 -25 20 6 24 35 26 53
5 14 -17 34 -9 26 10 -3 8 0 15 7 18 20 6 -31 65 -63 72 -16 4 -32 11 -35 16
-4 5 -31 9 -62 9 l-55 0 5 53 c2 28 7 61 10 72 3 11 6 26 6 33 1 8 18 12 51
12 70 0 63 20 -7 21 -32 1 -64 1 -70 0 -10 -1 -13 27 -13 114 0 96 -3 115 -15
115 -8 0 -16 -8 -17 -17 -2 -32 -3 -38 -10 -48 -4 -8 -19 -141 -22 -214 -1
-18 -22 -26 -24 -9 -1 7 -6 40 -12 73 -13 67 -6 144 16 187 13 25 13 28 -1 28
-20 0 -48 -46 -42 -70 3 -11 1 -22 -3 -25 -4 -3 -11 -33 -15 -67 -4 -35 -10
-67 -13 -72 -3 -6 -5 -33 -4 -60 2 -44 1 -48 -10 -31 -18 29 -14 208 5 273 13
43 14 52 2 52 -8 0 -16 -3 -18 -7z m141 -425 c-6 -18 -28 -21 -28 -4 0 9 7 16
16 16 9 0 14 -5 12 -12z"/>
<path d="M1250 1535 c0 -8 5 -15 10 -15 6 0 10 7 10 15 0 8 -4 15 -10 15 -5 0
-10 -7 -10 -15z"/>
<path d="M1634 1535 c-4 -8 -1 -21 5 -29 7 -8 11 -18 10 -22 -2 -5 3 -28 10
-52 12 -43 11 -280 -2 -332 -4 -14 -11 -45 -16 -70 -5 -25 -14 -58 -20 -73
-20 -53 -5 -81 20 -36 13 26 49 187 55 249 27 285 26 313 -16 358 -24 26 -38
28 -46 7z"/>
<path d="M1787 1524 c-16 -16 -7 -44 14 -44 15 0 20 5 17 22 -3 22 -19 33 -31
22z"/>
<path d="M1008 1233 c7 -3 16 -2 19 1 4 3 -2 6 -13 5 -11 0 -14 -3 -6 -6z"/>
<path d="M1030 1213 c0 -13 29 -38 35 -31 3 3 -4 13 -15 23 -11 10 -20 13 -20
8z"/>
<path d="M970 1165 c0 -8 7 -15 15 -15 8 0 15 7 15 15 0 8 -7 15 -15 15 -8 0
-15 -7 -15 -15z"/>
<path d="M996 1126 c21 -15 30 -14 19 3 -3 6 -14 11 -23 11 -13 0 -13 -2 4
-14z"/>
<path d="M478 1063 c-3 -17 1 -42 24 -133 10 -43 33 -74 47 -65 7 4 6 13 -4
28 -7 12 -20 58 -27 101 -13 75 -32 109 -40 69z"/>
<path d="M1412 950 c-13 -27 -18 -30 -63 -30 -27 0 -49 -4 -49 -10 0 -5 20
-10 44 -10 33 0 49 6 70 26 14 15 26 33 26 40 0 24 -15 15 -28 -16z"/>
<path d="M1366 604 c-22 -21 -20 -27 4 -12 11 7 20 16 20 20 0 12 -7 10 -24
-8z"/>
<path d="M1100 590 c-23 -7 -23 -8 -3 -9 12 -1 25 4 28 9 3 6 5 10 3 9 -2 -1
-14 -5 -28 -9z"/>
<path d="M1033 583 c9 -2 23 -2 30 0 6 3 -1 5 -18 5 -16 0 -22 -2 -12 -5z"/>
<path d="M1280 550 c0 -5 4 -10 9 -10 6 0 13 5 16 10 3 6 -1 10 -9 10 -9 0
-16 -4 -16 -10z"/>
<path d="M1248 533 c7 -3 16 -2 19 1 4 3 -2 6 -13 5 -11 0 -14 -3 -6 -6z"/>
<path d="M1200 504 c-16 -8 -19 -14 -9 -14 8 0 24 7 35 15 24 18 7 18 -26 -1z"/>
</g>
</svg>
